#!OML:ASF Y:\EmotionMaleHayes\Project 1\Capture day 1\Session 1\Male1.ASF
:FULLY-SPECIFIED
:DEGREES
49
root -27.775 16.4074 1.58113 -43.3214 86.0248 -49.7728
lowerback 13.3523 2.45392 4.27918
upperback 4.44011 4.10952 2.73671
thorax -2.70596 2.12932 -0.182384
lowerneck -21.7006 0.915381 4.58241
upperneck 21.4511 0.438279 -2.32765
head 10.485 0.331302 -1.51976
rclavicle 3.81667e-014 -2.46493e-014
rhumerus -35.7468 15.835 -81.6198
rradius 38.9649
rwrist -6.5026
rhand -18.5808 -32.7629
rfingers 7.12502
rthumb 7.7098 -62.6023
lclavicle 3.81667e-014 -2.46493e-014
lhumerus -42.9046 -19.6797 96.4284
lradius 49.8258
lwrist 12.1993
lhand -34.969 -32.7687
lfingers 7.12502
lthumb -8.11485 -2.94453
rfemur 7.88639 -1.98171 20.6866
rtibia 11.6243
rfoot -31.5445 -7.77044
rtoes -5.69427
lfemur -28.0314 9.07835 -12.7716
ltibia 51.7556
lfoot -21.8855 5.89386
ltoes -13.0102
50
root -27.6752 16.3992 1.58497 -43.7766 85.7973 -50.743
lowerback 13.3588 2.63678 4.57585
upperback 4.37308 4.38745 2.70257
thorax -2.74548 2.26451 -0.425808
lowerneck -21.6096 0.732943 4.16978
upperneck 21.4289 0.302546 -2.22608
head 10.4531 0.248233 -1.43487
rclavicle 2.3059e-014 8.11041e-014
rhumerus -34.3441 12.8678 -81.4143
rradius 38.0836
rwrist -7.11682
rhand -19.4347 -33.7377
rfingers 7.12502
rthumb 6.88558 -63.6057
lclavicle 2.3059e-014 8.11041e-014
lhumerus -42.6275 -17.293 96.1016
lradius 47.9051
lwrist 13.1629
lhand -35.6997 -32.2835
lfingers 7.12502
lthumb -8.82002 -2.48779
rfemur 7.98655 -2.05968 20.8757
rtibia 11.0494
rfoot -31.5561 -7.64025
rtoes -6.39319
lfemur -29.9712 9.67983 -12.8461
ltibia 51.2502
lfoot -22.1332 6.13681
ltoes -11.8426
51
root -27.574 16.3857 1.57348 -42.9617 85.6074 -50.5443
lowerback 13.2788 2.81539 4.91493
upperback 4.2431 4.65521 2.60373
thorax -2.79225 2.3916 -0.754872
lowerneck -21.4285 0.58138 3.95237
upperneck 21.338 0.200344 -2.33239
head 10.3819 0.170461 -1.45076
rclavicle -2.14687e-014 2.06736e-014
rhumerus -33.3915 10.3327 -81.6117
rradius 37.5015
rwrist -7.46023
rhand -20.9641 -34.7542
rfingers 7.12502
rthumb 5.40897 -64.6652
lclavicle -2.14687e-014 2.06736e-014
lhumerus -42.4592 -14.9995 95.6798
lradius 46.089
lwrist 14.4836
lhand -36.2183 -31.2143
lfingers 7.12502
lthumb -9.32047 -1.44031
rfemur 7.85874 -2.48832 20.7379
rtibia 10.6852
rfoot -31.4527 -7.03915
rtoes -6.38586
lfemur -32.009 10.1327 -13.1324
ltibia 50.5575
lfoot -22.0998 6.49845
ltoes -11.206
52
root -27.4571 16.3746 1.57859 -45.9371 85.8176 -53.9148
lowerback 13.3092 2.86034 5.0334
upperback 4.13753 4.72813 2.51276
thorax -2.89841 2.42162 -0.931286
lowerneck -21.4405 0.406881 3.86544
upperneck 21.5107 0.058488 -2.58556
head 10.4408 0.0703025 -1.54994
rclavicle -3.26007e-014 -2.78299e-014
rhumerus -32.8016 8.08035 -81.9603
rradius 37.8079
rwrist -9.3443
rhand -21.7303 -35.9781
rfingers 7.12502
rthumb 4.66923 -65.9067
lclavicle -3.26007e-014 -2.78299e-014
lhumerus -42.4675 -12.7732 95.1296
lradius 44.2824
lwrist 16.0141
lhand -36.0855 -29.692
lfingers 7.12502
lthumb -9.19226 0.0876215
rfemur 8.31338 -2.76703 20.7011
rtibia 9.97962
rfoot -31.5411 -6.81653
rtoes -5.6892
lfemur -33.7044 10.2168 -13.4582
ltibia 49.6375
lfoot -21.9515 6.88161
ltoes -12.0786
53
root -27.3424 16.3765 1.58428 -52.3437 86.3164 -60.3656
lowerback 13.8823 2.7379 5.15771
upperback 4.06483 4.62035 2.35326
thorax -3.26684 2.35755 -1.18862
lowerneck -21.5926 0.278498 3.78953
upperneck 21.8127 -0.0303506 -2.81587
head 10.5751 -0.00117989 -1.63761
rclavicle -1.94809e-014 3.18055e-014
rhumerus -32.529 6.42777 -82.5861
rradius 38.7571
rwrist -11.7617
rhand -22.3633 -36.5618
rfingers 7.12502
rthumb 4.05797 -66.5029
lclavicle -1.94809e-014 3.18055e-014
lhumerus -42.5699 -10.8373 94.5952
lradius 42.4394
lwrist 17.5552
lhand -36.1385 -27.4761
lfingers 7.12502
lthumb -9.24349 2.30128
rfemur 9.22336 -3.21511 20.5104
rtibia 9.18035
rfoot -31.6856 -6.71538
rtoes -5.59406
lfemur -34.9403 9.85276 -13.8925
ltibia 48.5273
lfoot -21.8529 6.92006
ltoes -12.048
54
root -27.2224 16.3651 1.58704 -50.7215 86.1976 -59.1088
lowerback 13.918 2.92513 5.242
upperback 4.05263 4.87358 2.24818
thorax -3.26845 2.48105 -1.38581
lowerneck -21.6308 0.184111 3.72553
upperneck 21.8848 -0.0504226 -3.14651
head 10.6069 -0.0559882 -1.75033
rclavicle -1.59028e-015 -4.77083e-015
rhumerus -32.2381 5.19107 -83.3183
rradius 40.1923
rwrist -14.2605
rhand -22.6432 -37.1003
rfingers 7.12502
rthumb 3.7877 -67.0464
lclavicle -1.59028e-015 -4.77083e-015
lhumerus -42.5184 -9.42629 94.2911
lradius 40.5275
lwrist 19.4152
lhand -36.7939 -25.2645
lfingers 7.12502
lthumb -9.8758 4.48383
rfemur 9.49536 -3.54 20.382
rtibia 8.77847
rfoot -31.7431 -6.15223
rtoes -6.03634
lfemur -36.3732 10.1739 -14.0721
ltibia 47.3405
lfoot -21.5533 6.88411
ltoes -11.8615
55
root -27.0957 16.3484 1.59157 -50.3463 86.059 -59.0627
lowerback 13.8957 3.18378 5.43761
upperback 4.03209 5.23018 2.11155
thorax -3.22594 2.65635 -1.68868
lowerneck -21.5317 -0.018027 3.67014
upperneck 21.869 -0.236539 -3.41254
head 10.574 -0.177263 -1.86396
rclavicle -3.57812e-015 3.26007e-014
rhumerus -32.0039 3.85272 -84.1674
rradius 41.7556
rwrist -16.3999
rhand -22.5906 -37.2217
rfingers 7.12502
rthumb 3.83844 -67.1669
lclavicle -3.57812e-015 3.26007e-014
lhumerus -42.6916 -8.56092 94.0029
lradius 38.8784
lwrist 21.8447
lhand -36.9883 -23.1959
lfingers 7.12502
lthumb -10.0634 6.54343
rfemur 9.91382 -3.93453 20.2898
rtibia 8.26502
rfoot -31.7903 -5.53421
rtoes -6.08859
lfemur -37.7453 10.4126 -14.1482
ltibia 46.1773
lfoot -21.336 6.83048
ltoes -11.8442
56
root -26.9676 16.3248 1.60464 -52.625 86.1823 -61.6643
lowerback 13.8136 3.2443 5.20157
upperback 4.19131 5.27363 2.1747
thorax -3.03931 2.68872 -1.48648
lowerneck -21.943 -0.0871806 3.30483
upperneck 21.7885 -0.168553 -3.64678
head 10.6241 -0.212672 -1.88016
rclavicle 3.22031e-014 -2.38542e-015
rhumerus -31.3819 3.42397 -84.9432
rradius 43.39
rwrist -18.1521
rhand -22.1628 -36.1324
rfingers 7.12502
rthumb 4.25154 -66.0698
lclavicle 3.22031e-014 -2.38542e-015
lhumerus -42.6236 -7.11094 93.6498
lradius 37.418
lwrist 24.3476
lhand -36.3178 -20.919
lfingers 7.12502
lthumb -9.41648 8.85067
rfemur 10.4909 -4.30512 20.177
rtibia 7.5422
rfoot -31.7821 -5.31442
rtoes -7.00959
lfemur -39.2267 10.4009 -14.3357
ltibia 45.2675
lfoot -21.428 6.53341
ltoes -10.607
57
root -26.855 16.2943 1.61017 -51.1011 85.5645 -60.7688
lowerback 13.8409 3.60637 5.65461
upperback 4.01608 5.81227 2.13326
thorax -3.1557 2.94441 -1.86786
lowerneck -21.771 -0.354043 3.07162
upperneck 21.5617 -0.407217 -3.85152
head 10.4993 -0.366946 -1.9458
rclavicle 1.74931e-014 2.22639e-014
rhumerus -31.2933 2.9443 -85.8225
rradius 45.4101
rwrist -19.3462
rhand -21.3081 -34.3794
rfingers 7.12502
rthumb 5.07688 -64.2986
lclavicle 1.74931e-014 2.22639e-014
lhumerus -42.9476 -6.5922 93.3786
lradius 35.8517
lwrist 26.8684
lhand -35.3123 -19.5679
lfingers 7.12502
lthumb -8.44617 10.2432
rfemur 10.2493 -4.62853 20.508
rtibia 7.41599
rfoot -31.7335 -4.78122
rtoes -9.13405
lfemur -41.1442 11.0203 -14.016
ltibia 44.6032
lfoot -21.3669 6.51942
ltoes -10.0078
58
root -26.6897 16.2425 1.59958 -42.0006 86.6256 -51.7677
lowerback 13.6008 3.81 4.68654
upperback 4.24999 5.90144 1.71102
thorax -2.82724 3.00261 -1.75511
lowerneck -21.9464 -0.599691 2.8243
upperneck 21.4337 -0.612694 -4.08986
head 10.4768 -0.51425 -2.02109
rclavicle 8.42847e-014 -3.73715e-014
rhumerus -30.9263 3.14071 -86.7464
rradius 47.5942
rwrist -20.4776
rhand -20.4729 -33.5466
rfingers 7.12502
rthumb 5.88329 -63.4449
lclavicle 8.42847e-014 -3.73715e-014
lhumerus -43.3058 -6.60661 93.352
lradius 34.4128
lwrist 29.3645
lhand -34.5658 -17.893
lfingers 7.12502
lthumb -7.72568 11.9459
rfemur 11.3903 -6.45769 18.1629
rtibia 6.71782
rfoot -31.7819 -3.20634
rtoes -10.3683
lfemur -41.8901 10.5948 -15.8434
ltibia 43.1156
lfoot -21.0752 6.11718
ltoes -10.4341
59
root -26.5538 16.2015 1.60656 -45.372 86.5488 -55.5172
lowerback 13.4062 3.90075 4.79252
upperback 4.30844 6.02085 1.68966
thorax -2.64006 3.06867 -1.83255
lowerneck -21.6436 -0.653027 2.61115
upperneck 20.9108 -0.587334 -4.24373
head 10.2332 -0.540345 -2.0241
rclavicle -1.98785e-015 1.51076e-014
rhumerus -30.5088 4.21549 -87.8317
rradius 49.726
rwrist -21.7026
rhand -19.7874 -32.6652
rfingers 7.12502
rthumb 6.54504 -62.544
lclavicle -1.98785e-015 1.51076e-014
lhumerus -44.1689 -6.99242 93.5299
lradius 33.6766
lwrist 32.0079
lhand -33.6174 -15.134
lfingers 7.12502
lthumb -6.81024 14.7365
rfemur 11.8152 -6.95058 18.1938
rtibia 6.25973
rfoot -31.8867 -2.76953
rtoes -10.5795
lfemur -43.384 10.7268 -15.7956
ltibia 42.3251
lfoot -20.6663 5.47115
ltoes -10.1959
60
root -26.4208 16.1713 1.62369 -56.4829 85.9456 -66.7405
lowerback 13.5545 3.81809 5.36828
upperback 4.53126 6.01263 1.89791
thorax -2.44914 3.08185 -1.93207
lowerneck -21.8755 -0.538902 2.79511
upperneck 20.513 -0.400719 -4.69793
head 10.1386 -0.501735 -2.18524
rclavicle 6.44062e-014 -9.54166e-015
rhumerus -29.8058 6.20108 -88.9762
rradius 51.7998
rwrist -22.5616
rhand -19.1217 -30.8004
rfingers 7.12502
rthumb 7.18766 -60.6583
lclavicle 6.44062e-014 -9.54166e-015
lhumerus -45.02 -7.66305 93.8173
lradius 33.3967
lwrist 34.5363
lhand -32.2076 -13.9477
lfingers 7.12502
lthumb -5.44922 15.9622
rfemur 12.4771 -6.68797 19.4619
rtibia 5.6801
rfoot -32.0279 -3.00291
rtoes -10.1748
lfemur -44.6744 11.0004 -14.7644
ltibia 41.8544
lfoot -20.0195 4.90092
ltoes -10.542
61
root -26.2936 16.1247 1.64104 -62.2974 85.0531 -72.8697
lowerback 13.6711 3.74672 5.99402
upperback 4.56007 6.02511 2.10553
thorax -2.43771 3.09384 -2.06963
lowerneck -21.9295 -0.445735 2.90059
upperneck 20.3206 -0.195425 -5.17144
head 10.0881 -0.457667 -2.33848
rclavicle 1.86858e-014 -2.14687e-014
rhumerus -29.3576 9.08695 -90.1677
rradius 53.8966
rwrist -23.0781
rhand -19.3668 -28.4197
rfingers 7.12502
rthumb 6.95107 -58.2855
lclavicle 1.86858e-014 -2.14687e-014
lhumerus -46.4073 -8.23442 94.174
lradius 33.5146
lwrist 36.3416
lhand -31.1704 -14.3323
lfingers 7.12502
lthumb -4.44767 15.601
rfemur 12.7592 -6.34343 20.8443
rtibia 5.35731
rfoot -32.2471 -3.31566
rtoes -9.76758
lfemur -46.2965 11.5353 -13.6539
ltibia 41.6402
lfoot -19.4152 4.51922
ltoes -10.8736
62
root -26.1679 16.0771 1.65687 -66.2882 84.3114 -77.0081
lowerback 14.0758 3.67315 6.49427
upperback 4.59208 6.04093 2.22541
thorax -2.58108 3.1024 -2.25356
lowerneck -21.8844 -0.376024 3.15916
upperneck 20.0518 -0.0550248 -5.73013
head 9.99015 -0.439746 -2.55395
rclavicle -3.22031e-014 -7.39479e-014
rhumerus -28.6922 11.909 -91.0543
rradius 55.9737
rwrist -22.1896
rhand -18.3844 -27.3856
rfingers 7.12502
rthumb 7.89938 -57.218
lclavicle -3.22031e-014 -7.39479e-014
lhumerus -48.2552 -9.16893 94.7006
lradius 34.2772
lwrist 37.5312
lhand -30.584 -14.9952
lfingers 7.12502
lthumb -3.88138 14.9492
rfemur 13.316 -6.06767 21.957
rtibia 4.87323
rfoot -32.4064 -3.74669
rtoes -9.69441
lfemur -47.6182 11.8906 -12.6858
ltibia 41.3754
lfoot -18.9377 3.88802
ltoes -10.059
63
root -26.0454 16.0244 1.67435 -69.1734 83.4365 -80.0929
lowerback 14.4715 3.60744 7.05969
upperback 4.62939 6.08114 2.34854
thorax -2.70449 3.12377 -2.47174
lowerneck -21.9797 -0.306062 3.44243
upperneck 19.7521 0.0633218 -6.26835
head 9.90708 -0.429534 -2.77034
rclavicle -7.27552e-014 -4.29375e-014
rhumerus -27.7742 15.0869 -91.8004
rradius 57.9879
rwrist -22.018
rhand -17.775 -26.9156
rfingers 7.12502
rthumb 8.48745 -56.725
lclavicle -7.27552e-014 -4.29375e-014
lhumerus -50.405 -10.5612 95.5465
lradius 35.5742
lwrist 38.395
lhand -30.3963 -15.8027
lfingers 7.12502
lthumb -3.70015 14.145
rfemur 13.7435 -5.71028 23.2371
rtibia 4.48952
rfoot -32.5311 -3.86486
rtoes -9.00978
lfemur -49.0277 12.318 -11.5966
ltibia 41.2983
lfoot -18.3231 3.24729
ltoes -9.67247
